<?xml version="1.0" encoding="utf-8"?>
<!-- Generator: Adobe Illustrator 22.1.0, SVG Export Plug-In . SVG Version: 6.00 Build 0)  -->
<svg version="1.0" id="Layer_1" xmlns="http://www.w3.org/2000/svg" xmlns:xlink="http://www.w3.org/1999/xlink" x="0px" y="0px"
	 viewBox="0 0 50 50" enable-background="new 0 0 50 50" xml:space="preserve">
<g>
	<g>
		<path fill="#46B8B0" d="M47.723,34.893V6.001c0-2.057-1.667-3.724-3.724-3.724H6.001c-2.057,0-3.724,1.668-3.724,3.724v37.998
			c0,2.057,1.668,3.724,3.724,3.724h6.471L47.723,34.893"/>
	</g>
	<g>
		<path fill="#4ECDC4" d="M40.258,2.277H6.001c-2.057,0-3.724,1.668-3.724,3.724v10.1L40.258,2.277z"/>
	</g>
	<g>
		<path fill="#444444" d="M43.999,1.027H6.001c-2.743,0-4.974,2.231-4.974,4.974v37.998c0,2.742,2.231,4.974,4.974,4.974h32.428
			c0.69,0,1.25-0.56,1.25-1.25s-0.56-1.25-1.25-1.25H6.001c-1.364,0-2.474-1.109-2.474-2.474V6.001c0-1.364,1.11-2.474,2.474-2.474
			h37.998c1.364,0,2.474,1.11,2.474,2.474v28.892c0,0.69,0.56,1.25,1.25,1.25s1.25-0.56,1.25-1.25V6.001
			C48.973,3.258,46.741,1.027,43.999,1.027z"/>
		<path fill="#444444" d="M41.512,6.129H8.488c-1.301,0-2.359,1.058-2.359,2.359v33.024c0,1.301,1.058,2.359,2.359,2.359h33.024
			c1.301,0,2.359-1.059,2.359-2.359V8.488C43.871,7.187,42.812,6.129,41.512,6.129z M43.371,41.512c0,1.025-0.834,1.859-1.859,1.859
			H8.488c-1.025,0-1.859-0.834-1.859-1.859V8.488c0-1.025,0.834-1.859,1.859-1.859h33.024c1.025,0,1.859,0.834,1.859,1.859V41.512z"
			/>
		<path fill="#444444" d="M37.881,15.588c0-0.087-0.036-0.14-0.176-0.14h-2.827c-0.088,0-0.176,0.071-0.176,0.176v4.565
			c-0.351-0.035-0.544-0.035-0.913-0.035c-4.319,0-6.953,3.196-6.953,7.287c0,4.776,2.721,7.129,6.533,7.128
			c1.475,0,3.02-0.316,4.495-1.018c0.105-0.053,0.105-0.07,0.105-0.193c-0.088-0.65-0.088-1.247-0.088-1.721V15.588z M34.686,22.945
			v8.692c-0.334,0.14-0.791,0.193-1.212,0.193c-1.967,0-3.477-1.299-3.477-4.53c0-2.827,1.475-4.53,3.687-4.53
			c0.419,0,0.752,0.053,1.015,0.175H34.686z"/>
		<path fill="#444444" d="M20.848,24.596l4.636-8.902c0.088-0.158,0.035-0.263-0.105-0.263h-2.827c-0.176,0-0.228,0.088-0.316,0.228
			c-1.071,2.3-2.195,4.635-3.213,6.953h-0.035c-1.054-2.353-2.178-4.654-3.284-6.989c-0.053-0.158-0.14-0.193-0.316-0.193h-3.02
			c-0.123,0-0.228,0.123-0.123,0.263l4.653,9.201l-4.811,9.254c-0.088,0.106-0.071,0.246,0.105,0.246h2.915
			c0.14,0,0.228-0.053,0.316-0.193c1.124-2.317,2.282-4.881,3.336-7.234h0.035c1.177,2.494,2.318,4.899,3.442,7.217
			c0.088,0.175,0.176,0.228,0.369,0.228h3.055c0.14,0,0.193-0.141,0.105-0.281L20.848,24.596z"/>
	</g>
</g>
</svg>
