<?xml version="1.0" encoding="utf-8"?>
<!-- Generator: Adobe Illustrator 22.1.0, SVG Export Plug-In . SVG Version: 6.00 Build 0)  -->
<svg version="1.0" id="Layer_1" xmlns="http://www.w3.org/2000/svg" xmlns:xlink="http://www.w3.org/1999/xlink" x="0px" y="0px"
	 viewBox="0 0 50 50" enable-background="new 0 0 50 50" xml:space="preserve">
<g>
	<g>
		<path fill="#E56060" d="M48.404,16.895v7.92l-5.44,2.131l-5.647,2.21l-2.454,0.954l-0.294,0.118l-1.481,0.579l-3.616,1.414
			l-8.12,3.177H9.402c-1.175,0-2.129-1.026-2.129-2.289v-2.635H6.394c-0.41,0-0.74-0.355-0.74-0.796v-0.694l0,0l-0.006-1.395
			c0-0.053,0.006-0.112,0.018-0.164c0.03-0.151,0.104-0.296,0.202-0.401c0.134-0.145,0.318-0.23,0.52-0.23h0.884v-2.177
			c0-1.263,0.948-2.289,2.129-2.289h1.69v-1.197l0.006-1.27c0.055-0.52,0.318-0.763,0.74-0.796h0.994l-0.012-2.171
			c0-1.276,0.955-2.296,2.129-2.296h31.325c0.587,0,1.12,0.257,1.505,0.671C48.165,15.685,48.404,16.257,48.404,16.895z"/>
	</g>
	<g>
		<path fill="#FF6B6B" d="M34.043,14.6l-19.495,7.631l-7.275,2.848v-0.46c0-1.263,0.948-2.289,2.129-2.289h1.69l0.005-2.467
			c0.059-0.518,0.319-0.765,0.74-0.795l0.886,0l-0.013-2.171c0-1.276,0.955-2.296,2.129-2.296H34.043z"/>
	</g>
	<g>
		<path fill="#444444" d="M33.826,27.874c0,0.159,0.037,0.324,0.104,0.471c0.043,0.086,0.092,0.159,0.147,0.232
			c0.018,0.018,0.043,0.037,0.061,0.055c0.043,0.049,0.086,0.092,0.135,0.128c0.03,0.018,0.061,0.037,0.085,0.055
			c0.049,0.031,0.098,0.055,0.147,0.079c0.037,0.012,0.074,0.024,0.104,0.037c0.037,0.006,0.067,0.018,0.104,0.024
			c0-0.012,0.006-0.012,0.012-0.024c0.055-0.116,0.122-0.22,0.202-0.318c0.012-0.012,0.025-0.031,0.043-0.043
			c0.086-0.098,0.177-0.184,0.281-0.257c0-0.006,0.006-0.006,0.006-0.006c0.104-0.073,0.22-0.135,0.343-0.184
			c0.012-0.006,0.03-0.012,0.049-0.018c0.122-0.043,0.245-0.073,0.367-0.086c0.012,0,0.024-0.006,0.037-0.012
			c0.006-0.043,0.012-0.092,0.012-0.135c0-0.226-0.067-0.441-0.19-0.624l-0.03-0.037c-0.171-0.239-0.428-0.398-0.716-0.447
			c-0.061-0.012-0.122-0.012-0.184-0.012C34.328,26.754,33.826,27.256,33.826,27.874z"/>
		<path fill="#444444" d="M36.378,28.009c0.073,0.012,0.147,0.031,0.22,0.043c0.024,0.012,0.055,0.012,0.086,0.018
			c0.122,0.037,0.238,0.086,0.349,0.147c0.024,0.012,0.043,0.031,0.067,0.043c0.08,0.055,0.159,0.116,0.239,0.184
			c0.031,0.024,0.055,0.055,0.086,0.092c0.03,0.031,0.067,0.061,0.098,0.098c0.018-0.018,0.037-0.024,0.055-0.043
			c0.031-0.024,0.055-0.043,0.086-0.061c0.061-0.049,0.122-0.086,0.189-0.122c0.018-0.006,0.031-0.018,0.049-0.024
			c0.086-0.043,0.171-0.073,0.263-0.092c0.006,0,0.012-0.006,0.018-0.006c0.086-0.018,0.172-0.024,0.263-0.031
			c0.018,0,0.03-0.006,0.049-0.006c0.012,0,0.018,0.006,0.025,0.006c0.006,0,0.018-0.006,0.024,0
			c0.043-0.122,0.061-0.251,0.061-0.379c0-0.618-0.502-1.12-1.114-1.12c-0.055,0-0.104,0-0.153,0.006
			c-0.287,0.043-0.545,0.184-0.722,0.41c-0.165,0.202-0.245,0.447-0.245,0.704C36.371,27.917,36.371,27.966,36.378,28.009z"/>
		<path fill="#444444" d="M34.946,32.598c0.618,0,1.12-0.508,1.12-1.12c0-0.049-0.006-0.098-0.012-0.141
			c-0.073-0.012-0.147-0.031-0.22-0.049c-0.024-0.006-0.055-0.006-0.079-0.012c-0.122-0.037-0.245-0.086-0.355-0.147
			c-0.019-0.012-0.043-0.031-0.061-0.043c-0.086-0.055-0.165-0.116-0.239-0.184c-0.03-0.025-0.061-0.055-0.092-0.092
			c-0.03-0.031-0.067-0.061-0.098-0.098c-0.013,0.012-0.031,0.025-0.049,0.043c-0.031,0.024-0.068,0.049-0.098,0.073
			c-0.049,0.037-0.098,0.067-0.153,0.092c-0.037,0.024-0.067,0.037-0.104,0.055c-0.061,0.024-0.122,0.043-0.184,0.061
			c-0.03,0.012-0.067,0.024-0.098,0.031c-0.073,0.012-0.141,0.018-0.214,0.024c-0.024,0-0.049,0.006-0.073,0.006h-0.043
			c-0.049,0.122-0.068,0.245-0.068,0.379C33.826,32.09,34.328,32.598,34.946,32.598z"/>
		<path fill="#444444" d="M37.491,32.598c0.612,0,1.114-0.508,1.114-1.12c0-0.135-0.018-0.257-0.061-0.379h-0.049
			c-0.024,0-0.055-0.006-0.08-0.006c-0.067-0.006-0.128-0.012-0.196-0.024c-0.043-0.006-0.086-0.025-0.128-0.037
			c-0.049-0.012-0.098-0.031-0.153-0.049c-0.043-0.018-0.079-0.043-0.122-0.061c-0.049-0.031-0.092-0.055-0.141-0.092
			c-0.03-0.024-0.067-0.049-0.098-0.073c-0.018-0.018-0.037-0.025-0.055-0.043c-0.03,0.037-0.061,0.067-0.098,0.098
			c-0.031,0.037-0.055,0.067-0.092,0.098c-0.068,0.061-0.147,0.122-0.226,0.171c-0.025,0.018-0.049,0.037-0.073,0.049
			c-0.11,0.061-0.227,0.11-0.349,0.147l-0.092,0.018c-0.073,0.018-0.141,0.037-0.214,0.043c-0.006,0.043-0.006,0.092-0.006,0.141
			C36.371,32.09,36.873,32.598,37.491,32.598z"/>
		<path fill="#444444" d="M36.243,31.038c0.465-0.012,0.887-0.251,1.132-0.649c0.135-0.214,0.208-0.459,0.208-0.716
			c0-0.251-0.073-0.502-0.208-0.716c-0.061-0.098-0.135-0.19-0.214-0.269c-0.245-0.232-0.569-0.373-0.918-0.379h-0.055
			c-0.557,0.012-1.046,0.361-1.248,0.881c-0.055,0.153-0.086,0.318-0.086,0.483c0,0.251,0.067,0.502,0.202,0.716
			c0.183,0.294,0.465,0.508,0.795,0.6c0.104,0.031,0.221,0.043,0.337,0.049H36.243z"/>
		<path fill="#444444" d="M33.71,28.578c-0.514,0.11-0.893,0.563-0.893,1.095c0,0.569,0.422,1.046,0.985,1.114h0.019
			c0.061,0.006,0.122,0,0.183,0c0.049-0.006,0.098-0.006,0.147-0.012c0.024-0.006,0.055-0.018,0.086-0.025
			c0.055-0.018,0.116-0.037,0.165-0.061c0.067-0.031,0.128-0.061,0.183-0.104c0.024-0.018,0.043-0.037,0.061-0.055
			c0.03-0.025,0.061-0.055,0.092-0.086c-0.037-0.067-0.055-0.135-0.079-0.202c-0.019-0.049-0.037-0.092-0.049-0.141
			c-0.037-0.141-0.061-0.281-0.061-0.428c0-0.128,0.018-0.251,0.049-0.379c0-0.012,0-0.024,0.006-0.043
			c-0.043-0.006-0.073-0.024-0.11-0.037s-0.067-0.024-0.104-0.037c-0.08-0.037-0.147-0.073-0.22-0.122
			c-0.018-0.012-0.043-0.024-0.067-0.037c-0.086-0.067-0.165-0.141-0.239-0.22c-0.018-0.025-0.03-0.049-0.049-0.074
			C33.777,28.676,33.74,28.633,33.71,28.578z"/>
		<path fill="#444444" d="M39.614,29.673c0-0.569-0.422-1.04-0.985-1.108h-0.012c-0.043-0.006-0.079-0.012-0.122-0.012
			c-0.08,0-0.159,0.012-0.239,0.031c-0.024,0.006-0.049,0.012-0.073,0.024c-0.049,0.012-0.098,0.024-0.147,0.049
			c-0.031,0.012-0.055,0.031-0.08,0.043c-0.043,0.024-0.085,0.049-0.122,0.08c-0.024,0.018-0.049,0.037-0.073,0.061
			c-0.024,0.018-0.043,0.037-0.067,0.061c0.037,0.067,0.055,0.141,0.079,0.208c0.018,0.043,0.043,0.086,0.055,0.135
			c0.037,0.141,0.061,0.281,0.061,0.428s-0.024,0.294-0.061,0.434c-0.012,0.043-0.036,0.086-0.055,0.129
			c-0.025,0.073-0.043,0.141-0.079,0.208c0.018,0.018,0.037,0.037,0.055,0.055c0.037,0.031,0.068,0.061,0.104,0.086
			c0.031,0.018,0.068,0.043,0.098,0.061c0.037,0.018,0.074,0.037,0.116,0.055c0.043,0.018,0.086,0.037,0.135,0.049
			c0.031,0.006,0.055,0.012,0.085,0.018c0.055,0.012,0.11,0.018,0.165,0.018c0.055,0.006,0.11,0.006,0.165,0
			C39.186,30.719,39.614,30.242,39.614,29.673z"/>
		<path fill="#444444" d="M36.249,25.421c-0.287-0.355-0.722-0.649-0.942-0.783c-0.177,0.526-0.3,1.199-0.147,1.628
			c0.031,0.08,0.061,0.153,0.092,0.214c0.037,0.006,0.068,0.025,0.104,0.031c0.031,0.012,0.061,0.018,0.098,0.031
			c0.043,0.018,0.092,0.043,0.135,0.067c0.031,0.012,0.055,0.025,0.079,0.043c0.055,0.031,0.11,0.067,0.159,0.11
			c0.012,0.006,0.03,0.018,0.043,0.031c0.061,0.049,0.116,0.11,0.171,0.171c0.031-0.006,0.068-0.018,0.098-0.031
			c0.037-0.012,0.073-0.031,0.104-0.049c0.336-0.177,0.416-0.569,0.226-1.095C36.42,25.665,36.347,25.543,36.249,25.421z"/>
		<path fill="#444444" d="M36.855,26.491c0,0.024-0.006,0.055-0.012,0.079c0,0.006-0.006,0.025-0.006,0.031
			c0.012-0.006,0.031-0.006,0.043-0.012c0.092-0.043,0.19-0.079,0.287-0.098c0.019-0.006,0.031-0.012,0.049-0.018
			c0.025-0.049,0.043-0.098,0.068-0.153c0.159-0.441-0.024-1.101-0.128-1.42c-0.141,0.086-0.373,0.245-0.581,0.441
			c0.006,0.012,0.012,0.024,0.018,0.037c0.067,0.098,0.122,0.202,0.165,0.306c0.037,0.11,0.068,0.214,0.086,0.312
			c0.006,0.031,0.006,0.061,0.012,0.092c0.012,0.061,0.018,0.116,0.018,0.171v0.092C36.867,26.4,36.867,26.448,36.855,26.491z"/>
		<path fill="#444444" d="M46.271,13.349H14.841c-1.864,0-3.381,1.589-3.381,3.542v0.269h-0.632c-1.097,0-1.99,0.917-1.99,2.045
			v0.681h-5.11c-1.864,0-3.381,1.589-3.381,3.542v3.369c0,1.836,1.341,3.35,3.051,3.524v0.443c0,1.128,0.893,2.045,1.99,2.045h0.339
			v0.301c0,1.952,1.517,3.541,3.381,3.541h32.345c0.69,0,1.25-0.56,1.25-1.25s-0.56-1.25-1.25-1.25H29.72V22.578h11.112
			c1.037,0,1.881,0.916,1.881,2.042v5.416c0,0.138,0.112,0.25,0.25,0.25s0.25-0.112,0.25-0.25v-5.416
			c0-1.401-1.068-2.542-2.381-2.542H14.798v-1.883c0-0.505-0.372-0.919-0.843-0.958l0.005-0.828v-1.519
			c0-0.574,0.396-1.042,0.881-1.042h31.431c0.486,0,0.882,0.467,0.882,1.042v8.49c0,0.69,0.56,1.25,1.25,1.25s1.25-0.559,1.25-1.25
			v-8.49C49.653,14.938,48.137,13.349,46.271,13.349z M6.337,30.226c-0.242,0-0.439-0.197-0.439-0.439v-2.301
			c0-0.242,0.197-0.439,0.439-0.439h2.081c0.243,0,0.44,0.197,0.44,0.439v2.301c0,0.242-0.197,0.439-0.44,0.439H6.337z M7.02,26.546
			H6.337c-0.518,0-0.939,0.422-0.939,0.939v0.349l-1.67,0.003c-0.486,0-0.881-0.467-0.881-1.041v-3.369
			c0-0.575,0.396-1.042,0.881-1.042h4.561c-0.751,0.428-1.269,1.263-1.269,2.234V26.546z M29.22,34.151H9.108
			c-0.486,0-0.881-0.467-0.881-1.041v-1.551l0.005-0.833h0.187c0.518,0,0.94-0.422,0.94-0.939v-2.301
			c0-0.518-0.422-0.939-0.94-0.939H7.52v-1.927c0-1.125,0.844-2.042,1.881-2.042H29.22V34.151z M14.298,20.195v1.883h-2.956v-1.883
			c0-0.254,0.186-0.46,0.414-0.46h2.127C14.112,19.734,14.298,19.941,14.298,20.195z"/>
	</g>
</g>
</svg>
