<?xml version="1.0" encoding="utf-8"?>
<!-- Generator: Adobe Illustrator 22.1.0, SVG Export Plug-In . SVG Version: 6.00 Build 0)  -->
<svg version="1.0" id="Layer_1" xmlns="http://www.w3.org/2000/svg" xmlns:xlink="http://www.w3.org/1999/xlink" x="0px" y="0px"
	 viewBox="0 0 50 50" style="enable-background:new 0 0 50 50;" xml:space="preserve">
<style type="text/css">
	.st0{fill:#71BAC0;}
	.st1{fill:#7ED0D6;}
	.st2{fill:#444444;stroke:#444444;stroke-width:0.25;stroke-linecap:round;stroke-miterlimit:10;}
	.st3{fill:none;stroke:#444444;stroke-width:0.5;stroke-linecap:round;stroke-miterlimit:10;}
	.st4{fill:none;stroke:#444444;stroke-width:2.5;stroke-linecap:round;stroke-miterlimit:10;}
	.st5{fill:#444444;stroke:#444444;stroke-width:0.5;stroke-linecap:round;stroke-miterlimit:10;}
</style>
<g>
	<path class="st0" d="M45.739,3.781v32.598L14.797,47.641H5.679c-0.785,0-1.419-0.633-1.419-1.427V3.781
		c0-0.785,0.633-1.418,1.419-1.418h38.643C45.106,2.362,45.739,2.995,45.739,3.781z"/>
	<path class="st1" d="M45.739,3.781V4.76L4.26,19.856V3.781c0-0.785,0.633-1.418,1.419-1.418h38.643
		C45.106,2.362,45.739,2.995,45.739,3.781z"/>
	<g>
		<path class="st2" d="M42.244,26.444v0.821h-8.479l3.278-3.277l1.215-1.216c0.088-0.088,0.226-0.088,0.313,0L42.244,26.444z"/>
		<path class="st2" d="M42.681,27.265h-6.403l3.396-3.39l0.2-0.207l1.216-1.216c0.081-0.088,0.226-0.088,0.313,0l1.276,1.277
			L42.681,27.265z"/>
		<path class="st3" d="M10.531,26.539l0.99-0.99c0.081-0.082,0.207-0.082,0.288,0l1.679,1.679H9.842"/>
		<path class="st3" d="M11.221,27.228H7.316v-0.32l1.654-1.648c0.075-0.081,0.201-0.081,0.282,0L11.221,27.228z"/>
		<path class="st3" d="M31.186,27.155l0.896-0.89l0.163-0.169l1.867-1.868c0.138-0.138,0.351-0.138,0.483,0l2.933,2.927H31.186z"/>
		<path class="st3" d="M32.972,27.155h-4.33l0.138-0.138l1.799-1.792c0.125-0.132,0.332-0.132,0.464,0l1.04,1.04"/>
		<path class="st2" d="M33.695,30.947l-3.796,4.245l-0.057,0.065H19.095l-0.086,0.086l-0.075-0.086l-0.057-0.065l-1.5-1.679
			l-1.453-1.625l-0.843-0.94c-0.093-0.093-0.093-0.244,0-0.337l0.631-0.703l0.535-0.603l0.197-0.219l0.861-0.958l5.818-6.502
			c0.059-0.066,0.149-0.094,0.235-0.073l2.762,0.66c0.048,0.011,0.09,0.037,0.123,0.073l2.4,2.682l1.044,1.166l2.644,2.953
			l1.363,1.525C33.788,30.703,33.788,30.854,33.695,30.947z"/>
		<path class="st2" d="M42.68,30.01v10.349c0,0.175-0.142,0.317-0.317,0.317H7.636c-0.175,0-0.317-0.142-0.317-0.317V30.01H42.68z"
			/>
		<path class="st3" d="M42.263,40.783H7.737c-0.231,0-0.417-0.187-0.417-0.417V5.839c0-0.231,0.187-0.417,0.417-0.417h34.526
			c0.231,0,0.417,0.187,0.417,0.417v34.526C42.68,40.596,42.494,40.783,42.263,40.783z"/>
		<path class="st4" d="M24.387,47.641H5.679c-0.786,0-1.423-0.637-1.423-1.423V3.782c0-0.786,0.637-1.423,1.423-1.423H44.32
			c0.786,0,1.423,0.637,1.423,1.423v32.712"/>
		<g>
			<rect x="11.394" y="6.857" class="st5" width="0.611" height="0.611"/>
			<g>
				<path class="st2" d="M17.041,23.15V11.641V8.26c0,0-0.634,2.145-1.979,2.145S13.083,8.26,13.083,8.26v3.381V23.15h-0.679v8.528
					h5.322V23.15H17.041z"/>
			</g>
			<line class="st3" x1="18.015" y1="7.162" x2="12.11" y2="7.162"/>
			<line class="st3" x1="18.425" y1="19.067" x2="18.425" y2="7.481"/>
			<polyline class="st3" points="11.7,19.682 11.7,31.587 18.425,31.587 18.425,19.682 			"/>
			<line class="st3" x1="11.7" y1="7.47" x2="11.7" y2="19.067"/>
			<rect x="18.119" y="6.87" class="st5" width="0.611" height="0.611"/>
			<rect x="18.119" y="19.067" class="st5" width="0.611" height="0.611"/>
			<rect x="11.401" y="19.067" class="st5" width="0.611" height="0.611"/>
		</g>
	</g>
</g>
</svg>
