<?xml version="1.0" encoding="UTF-8" standalone="no"?>
<svg width="15px" height="14px" viewBox="0 0 15 14" version="1.1" xmlns="http://www.w3.org/2000/svg" xmlns:xlink="http://www.w3.org/1999/xlink">
    <!-- Generator: sketchtool 3.7.2 (28276) - http://www.bohemiancoding.com/sketch -->
    <title>1C78247E-565F-4329-AEAB-8883CEE51247</title>
    <desc>Created with sketchtool.</desc>
    <defs></defs>
    <g id="Page-1" stroke="none" stroke-width="1" fill="none" fill-rule="evenodd">
        <g id="alura-interna-forum-topicos" transform="translate(-152.000000, -420.000000)" fill="#9FD344">
            <g id="Group-3" transform="translate(131.000000, 255.000000)">
                <g id="Group-2" transform="translate(13.000000, 157.000000)">
                    <path d="M22.8836141,9.63520296 L20.9075309,8.08587499 C20.8463407,8.03578125 20.7707528,8 20.6843667,8 C20.5979805,8 20.5187932,8.03578125 20.457603,8.08945312 L13.2695553,17.2709209 C13.2695553,17.2709209 10.4440082,14.5694368 10.3648209,14.4907181 C10.2856336,14.4119994 10.1812503,14.2796087 10.0228757,14.2796087 C9.86450112,14.2796087 9.79251266,14.3905306 9.70972593,14.4728275 C9.64853574,14.5372337 8.64069729,15.5892024 8.14397692,16.1116086 C8.11518154,16.1438117 8.09718442,16.1617023 8.07198846,16.1867492 C8.02879538,16.2475773 8,16.3155617 8,16.3907023 C8,16.469421 8.02879538,16.5338273 8.07198846,16.5946554 L8.1727723,16.6876866 C8.1727723,16.6876866 13.1867685,21.4752174 13.2695553,21.5575143 C13.352342,21.6398111 13.4531258,21.7435767 13.6007022,21.7435767 C13.7446791,21.7435767 13.8634601,21.5897174 13.9318491,21.521733 L22.8980118,10.0717342 C22.9412049,10.010906 22.9700003,9.94292168 22.9700003,9.86420294 C22.9700003,9.77474982 22.934006,9.6996092 22.8836141,9.63520296 L22.8836141,9.63520296 Z" id="icon-Solved"></path>
                </g>
            </g>
        </g>
    </g>
</svg>