<svg
	xmlns="http://www.w3.org/2000/svg"
	xmlns:xlink="http://www.w3.org/1999/xlink" width="0" height="0" version="1.1" viewBox="0 0 39 40">
    <defs>
				<path id="a" d="M19.355 0H38.71v40H0V0z"/>
			</defs>
			<g fill="none" fill-rule="evenodd">
				<mask id="b" fill="#fff">
					<use xlink:href="#a"/>
				</mask>
				<path fill="#8696A0" d="M27.989 15.423c.01.197.013.397.013.597 0 6.084-4.479 13.096-12.675 13.096-2.516 0-4.858-.76-6.828-2.067a8.758 8.758 0 0 0 6.595-1.907c-1.949-.035-3.595-1.367-4.162-3.197a4.31 4.31 0 0 0 2.01-.077c-2.037-.421-3.572-2.281-3.572-4.513l.001-.059c.6.344 1.288.552 2.017.576a4.641 4.641 0 0 1-1.98-3.83c0-.845.218-1.637.602-2.317 2.196 2.786 5.48 4.618 9.182 4.811a4.75 4.75 0 0 1-.115-1.05c0-2.54 1.993-4.602 4.454-4.602 1.281 0 2.437.559 3.252 1.453a8.732 8.732 0 0 0 2.83-1.117 4.597 4.597 0 0 1-1.962 2.547 8.618 8.618 0 0 0 2.559-.724 9.124 9.124 0 0 1-2.221 2.38M19.355 0C8.683 0 .001 8.972.001 20s8.682 20 19.354 20c10.671 0 19.355-8.972 19.355-20S30.028 0 19.355 0" mask="url(#b)"/>
			</g>
</svg>    