<svg
	xmlns="http://www.w3.org/2000/svg"
	xmlns:xlink="http://www.w3.org/1999/xlink" width="0" height="0" version="1.1" viewBox="0 0 40 40">
<defs>
				<path id="a" d="M40 0H0v40h40V0z"/>
			</defs>
			<g fill="none" fill-rule="evenodd">
				<path fill="#8696A0" d="M27.273 24.546c-.546 0-.91.362-.91.91v1.816c0 .547.364.91.91.91.545 0 .909-.363.909-.91v-1.817c0-.547-.364-.91-.91-.91"/>
				<g>
					<mask id="b" fill="#fff">
						<use xlink:href="#a"/>
					</mask>
					<path fill="#8696A0" d="M31.818 27.273c0 2.545-2 4.545-4.545 4.545s-4.545-2-4.545-4.545v-1.819A4.501 4.501 0 0 1 26 21.09c.18-.09.364-.272.364-.454v-2.454A6.324 6.324 0 0 0 20 11.818a6.323 6.323 0 0 0-6.363 6.364v2.454c0 .182.09.364.363.454a4.5 4.5 0 0 1 3.273 4.364v1.819c0 2.545-2 4.545-4.545 4.545-2.547 0-4.547-2-4.547-4.545v-1.819c0-1.364.637-2.636 1.637-3.454.09-.091.182-.182.182-.364v-3.454a9.97 9.97 0 0 1 10-10 9.97 9.97 0 0 1 10 10v3.454c0 .092.092.273.18.364 1 .818 1.638 2.09 1.638 3.454v1.819zM20 0C8.909 0 0 8.909 0 20c0 11.09 8.909 20 20 20 11.092 0 20-8.91 20-20C40 8.909 31.092 0 20 0z" mask="url(#b)"/>
				</g>
				<path fill="#8696A0" d="M12.727 24.546c-.545 0-.91.362-.91.91v1.816c0 .547.365.91.91.91s.91-.363.91-.91v-1.817c0-.547-.365-.91-.91-.91"/>
			</g>
</svg>    