<svg
	xmlns="http://www.w3.org/2000/svg"
	xmlns:xlink="http://www.w3.org/1999/xlink" width="0" height="0" version="1.1" viewBox="0 0 40 40">
<defs>
				<path id="a" d="M40 40H0V0h40v40V0H0v40h40z"/>
			</defs>
			<g fill="none" fill-rule="evenodd">
				<path fill="#8696A0" d="M30.458 24.279c-.179.573-.71 2.072-1.765 3.614-1.012 1.48-2.16 3.156-4.028 3.191-.874.016-1.466-.241-2.04-.49-.582-.251-1.184-.511-2.128-.511-.99 0-1.624.27-2.235.53-.545.231-1.11.471-1.888.502l-.095.002c-1.658 0-2.87-1.553-4.066-3.284-2.398-3.46-3.775-9.168-1.608-12.93 1.14-1.983 3.208-3.234 5.396-3.266h.066c.942 0 1.83.352 2.614.663.586.232 1.093.433 1.484.433.348 0 .85-.198 1.433-.428.845-.333 1.896-.748 2.995-.748.14 0 .28.007.416.022.933.04 3.254.373 4.77 2.59a.213.213 0 0 1-.06.295l-.02.012c-.44.272-2.636 1.775-2.608 4.61.031 3.491 2.918 4.771 3.247 4.906l.015.007a.208.208 0 0 1 .112.257l-.007.023zM21.146 7.46c.95-1.113 2.539-1.929 3.864-1.982a.211.211 0 0 1 .217.188c.154 1.4-.353 2.964-1.358 4.182-.955 1.154-2.352 1.871-3.648 1.871-.09 0-.182-.003-.272-.01a.21.21 0 0 1-.192-.182c-.208-1.572.581-3.132 1.39-4.067zM20 .001C8.954 0 0 8.954 0 20c0 11.044 8.955 20 20 20 11.047 0 20-8.956 20-20C40 8.954 31.046 0 20 0z"/>
			</g>
</svg>            