<svg
	xmlns="http://www.w3.org/2000/svg"
	xmlns:xlink="http://www.w3.org/1999/xlink" width="0" height="0" version="1.1" viewBox="0 0 40 40">
	<defs>
		<path id="a" d="M0 0h40v40H0V0z"/>
	</defs>
	<g fill="none" fill-rule="evenodd">
		<path fill="#8696A0" d="M16.356 24.383l8.979-4.655-8.98-4.684v9.34z"/>
		<g>
			<mask id="b" fill="#fff">
				<use xlink:href="#a"/>
			</mask>
			<path fill="#8696A0" d="M33.627 26.676c-.346 1.502-1.575 2.609-3.053 2.774-3.502.392-7.046.394-10.575.392-3.529.002-7.074 0-10.577-.392-1.478-.165-2.706-1.272-3.05-2.774-.493-2.14-.493-4.474-.493-6.676s.006-4.537.498-6.676c.345-1.502 1.573-2.61 3.051-2.775 3.503-.391 7.047-.393 10.577-.391 3.528-.002 7.073 0 10.574.39 1.48.167 2.708 1.274 3.053 2.776.493 2.139.488 4.474.488 6.676s0 4.537-.493 6.676M20 0C8.955 0 0 8.954 0 20s8.955 20 20 20 20-8.954 20-20S31.045 0 20 0" mask="url(#b)"/>
		</g>
	</g>
</svg>            
			

