<svg
	xmlns="http://www.w3.org/2000/svg"
	xmlns:xlink="http://www.w3.org/1999/xlink" width="0" height="0" version="1.1" viewBox="0 0 40 40">
	<defs>
    <path id="a" d="M0 20v20h40V0H0v20z"/>
			</defs>
			<g fill="none" fill-rule="evenodd">
				<path fill="#8696A0" d="M14.062 10.537a.418.418 0 0 0-.101.272v18.384c0 .1.037.196.101.27l6.793-9.462-6.793-9.464zM22.567 17.617l1.326-1.847-4.498-2.572zM19.394 26.802l4.499-2.572-1.327-1.846zM30.663 19.64l-4.344-2.483L24.276 20l2.043 2.842 4.344-2.482a.417.417 0 0 0 0-.722"/>
				<g>
					<mask id="b" fill="#fff">
						<use xlink:href="#a"/>
					</mask>
					<path fill="#8696A0" d="M32.043 22.774L15.96 31.966a3.19 3.19 0 0 1-3.188-.011 3.205 3.205 0 0 1-1.592-2.763V10.808c0-1.136.611-2.194 1.592-2.764a3.19 3.19 0 0 1 3.188-.01l16.082 9.192A3.202 3.202 0 0 1 33.652 20a3.204 3.204 0 0 1-1.61 2.774M20 0C8.955 0 0 8.955 0 20c0 11.046 8.955 20 20 20s20-8.954 20-20C40 8.955 31.045 0 20 0" mask="url(#b)"/>
				</g>
			</g>
</svg>            